<mxfile host="app.diagrams.net" agent="Mozilla/5.0 (Windows NT 10.0; Win64; x64) AppleWebKit/537.36 (KHTML, like Gecko) Chrome/134.0.0.0 Safari/537.36" version="26.1.3">
  <diagram name="Page-1" id="ZHL7TVFvpXaQOrETjLmC">
    <mxGraphModel dx="830" dy="417" grid="0" gridSize="10" guides="1" tooltips="1" connect="1" arrows="1" fold="1" page="1" pageScale="1" pageWidth="827" pageHeight="1169" math="0" shadow="0">
      <root>
        <mxCell id="0" />
        <mxCell id="1" parent="0" />
        <mxCell id="Gzbia7pIsG1ZChBNoY8I-2" value="" style="endArrow=none;html=1;rounded=0;" parent="1" edge="1">
          <mxGeometry width="50" height="50" relative="1" as="geometry">
            <mxPoint x="440" y="560" as="sourcePoint" />
            <mxPoint x="440" y="520" as="targetPoint" />
          </mxGeometry>
        </mxCell>
        <mxCell id="Gzbia7pIsG1ZChBNoY8I-3" value="" style="endArrow=none;html=1;rounded=0;" parent="1" edge="1">
          <mxGeometry width="50" height="50" relative="1" as="geometry">
            <mxPoint x="800" y="560" as="sourcePoint" />
            <mxPoint x="800" y="520" as="targetPoint" />
          </mxGeometry>
        </mxCell>
        <mxCell id="Gzbia7pIsG1ZChBNoY8I-4" value="" style="endArrow=none;html=1;rounded=0;" parent="1" edge="1">
          <mxGeometry width="50" height="50" relative="1" as="geometry">
            <mxPoint x="440" y="520" as="sourcePoint" />
            <mxPoint x="800" y="520" as="targetPoint" />
          </mxGeometry>
        </mxCell>
        <mxCell id="Gzbia7pIsG1ZChBNoY8I-5" value="" style="endArrow=none;html=1;rounded=0;" parent="1" edge="1">
          <mxGeometry width="50" height="50" relative="1" as="geometry">
            <mxPoint x="480" y="520" as="sourcePoint" />
            <mxPoint x="480" y="360" as="targetPoint" />
          </mxGeometry>
        </mxCell>
        <mxCell id="Gzbia7pIsG1ZChBNoY8I-6" value="" style="endArrow=classic;html=1;rounded=0;" parent="1" edge="1">
          <mxGeometry width="50" height="50" relative="1" as="geometry">
            <mxPoint x="480" y="360" as="sourcePoint" />
            <mxPoint x="550" y="360" as="targetPoint" />
          </mxGeometry>
        </mxCell>
        <mxCell id="Gzbia7pIsG1ZChBNoY8I-7" value="" style="endArrow=none;html=1;rounded=0;curved=1;" parent="1" edge="1">
          <mxGeometry width="50" height="50" relative="1" as="geometry">
            <mxPoint x="480" y="520" as="sourcePoint" />
            <mxPoint x="530" y="360" as="targetPoint" />
            <Array as="points">
              <mxPoint x="530" y="480" />
            </Array>
          </mxGeometry>
        </mxCell>
        <mxCell id="Gzbia7pIsG1ZChBNoY8I-9" value="" style="endArrow=classic;html=1;rounded=0;" parent="1" edge="1">
          <mxGeometry width="50" height="50" relative="1" as="geometry">
            <mxPoint x="480" y="380" as="sourcePoint" />
            <mxPoint x="529" y="380" as="targetPoint" />
          </mxGeometry>
        </mxCell>
        <mxCell id="Gzbia7pIsG1ZChBNoY8I-10" value="" style="endArrow=classic;html=1;rounded=0;" parent="1" edge="1">
          <mxGeometry width="50" height="50" relative="1" as="geometry">
            <mxPoint x="480" y="400" as="sourcePoint" />
            <mxPoint x="528" y="400.4" as="targetPoint" />
          </mxGeometry>
        </mxCell>
        <mxCell id="Gzbia7pIsG1ZChBNoY8I-11" value="" style="endArrow=classic;html=1;rounded=0;" parent="1" edge="1">
          <mxGeometry width="50" height="50" relative="1" as="geometry">
            <mxPoint x="480" y="420" as="sourcePoint" />
            <mxPoint x="526" y="420.4" as="targetPoint" />
          </mxGeometry>
        </mxCell>
        <mxCell id="Gzbia7pIsG1ZChBNoY8I-12" value="" style="endArrow=classic;html=1;rounded=0;" parent="1" edge="1">
          <mxGeometry width="50" height="50" relative="1" as="geometry">
            <mxPoint x="480" y="440" as="sourcePoint" />
            <mxPoint x="522" y="440.4" as="targetPoint" />
          </mxGeometry>
        </mxCell>
        <mxCell id="Gzbia7pIsG1ZChBNoY8I-13" value="" style="endArrow=classic;html=1;rounded=0;" parent="1" edge="1">
          <mxGeometry width="50" height="50" relative="1" as="geometry">
            <mxPoint x="480" y="460" as="sourcePoint" />
            <mxPoint x="517" y="460.4" as="targetPoint" />
          </mxGeometry>
        </mxCell>
        <mxCell id="Gzbia7pIsG1ZChBNoY8I-14" value="" style="endArrow=classic;html=1;rounded=0;" parent="1" edge="1">
          <mxGeometry width="50" height="50" relative="1" as="geometry">
            <mxPoint x="480" y="480" as="sourcePoint" />
            <mxPoint x="509" y="480.4" as="targetPoint" />
          </mxGeometry>
        </mxCell>
        <mxCell id="Gzbia7pIsG1ZChBNoY8I-15" value="" style="endArrow=classic;html=1;rounded=0;" parent="1" edge="1">
          <mxGeometry width="50" height="50" relative="1" as="geometry">
            <mxPoint x="480" y="500" as="sourcePoint" />
            <mxPoint x="498" y="500.4" as="targetPoint" />
          </mxGeometry>
        </mxCell>
        <mxCell id="Gzbia7pIsG1ZChBNoY8I-16" value="V" style="text;html=1;align=center;verticalAlign=middle;whiteSpace=wrap;rounded=0;" parent="1" vertex="1">
          <mxGeometry x="530" y="346" width="60" height="30" as="geometry" />
        </mxCell>
        <mxCell id="Gzbia7pIsG1ZChBNoY8I-17" value="Velocity&lt;div&gt;variation of air&lt;/div&gt;" style="text;html=1;align=center;verticalAlign=middle;whiteSpace=wrap;rounded=0;" parent="1" vertex="1">
          <mxGeometry x="480" y="316" width="60" height="30" as="geometry" />
        </mxCell>
        <mxCell id="Gzbia7pIsG1ZChBNoY8I-18" value="" style="endArrow=none;html=1;rounded=0;" parent="1" edge="1">
          <mxGeometry width="50" height="50" relative="1" as="geometry">
            <mxPoint x="680" y="520" as="sourcePoint" />
            <mxPoint x="680" y="360" as="targetPoint" />
          </mxGeometry>
        </mxCell>
        <mxCell id="Gzbia7pIsG1ZChBNoY8I-19" value="Hot block (photovoltaic module)" style="text;html=1;align=center;verticalAlign=middle;whiteSpace=wrap;rounded=0;" parent="1" vertex="1">
          <mxGeometry x="520" y="530" width="200" height="30" as="geometry" />
        </mxCell>
        <mxCell id="Gzbia7pIsG1ZChBNoY8I-20" value="" style="endArrow=classic;html=1;rounded=0;" parent="1" edge="1">
          <mxGeometry width="50" height="50" relative="1" as="geometry">
            <mxPoint x="680" y="360" as="sourcePoint" />
            <mxPoint x="750" y="360" as="targetPoint" />
          </mxGeometry>
        </mxCell>
        <mxCell id="Gzbia7pIsG1ZChBNoY8I-21" value="T" style="text;html=1;align=center;verticalAlign=middle;whiteSpace=wrap;rounded=0;" parent="1" vertex="1">
          <mxGeometry x="730" y="346" width="60" height="30" as="geometry" />
        </mxCell>
        <mxCell id="Gzbia7pIsG1ZChBNoY8I-22" value="" style="endArrow=none;html=1;rounded=0;curved=1;" parent="1" edge="1">
          <mxGeometry width="50" height="50" relative="1" as="geometry">
            <mxPoint x="770" y="520" as="sourcePoint" />
            <mxPoint x="710" y="360" as="targetPoint" />
            <Array as="points">
              <mxPoint x="710" y="480" />
            </Array>
          </mxGeometry>
        </mxCell>
        <mxCell id="Gzbia7pIsG1ZChBNoY8I-23" value="" style="endArrow=none;html=1;rounded=0;" parent="1" edge="1">
          <mxGeometry width="50" height="50" relative="1" as="geometry">
            <mxPoint x="680" y="380" as="sourcePoint" />
            <mxPoint x="710" y="380" as="targetPoint" />
          </mxGeometry>
        </mxCell>
        <mxCell id="Gzbia7pIsG1ZChBNoY8I-24" value="" style="endArrow=none;html=1;rounded=0;" parent="1" edge="1">
          <mxGeometry width="50" height="50" relative="1" as="geometry">
            <mxPoint x="680" y="400" as="sourcePoint" />
            <mxPoint x="712" y="400" as="targetPoint" />
          </mxGeometry>
        </mxCell>
        <mxCell id="Gzbia7pIsG1ZChBNoY8I-25" value="" style="endArrow=none;html=1;rounded=0;" parent="1" edge="1">
          <mxGeometry width="50" height="50" relative="1" as="geometry">
            <mxPoint x="680" y="420" as="sourcePoint" />
            <mxPoint x="715" y="420" as="targetPoint" />
          </mxGeometry>
        </mxCell>
        <mxCell id="Gzbia7pIsG1ZChBNoY8I-26" value="" style="endArrow=none;html=1;rounded=0;" parent="1" edge="1">
          <mxGeometry width="50" height="50" relative="1" as="geometry">
            <mxPoint x="680" y="440" as="sourcePoint" />
            <mxPoint x="719" y="440" as="targetPoint" />
          </mxGeometry>
        </mxCell>
        <mxCell id="Gzbia7pIsG1ZChBNoY8I-27" value="" style="endArrow=none;html=1;rounded=0;" parent="1" edge="1">
          <mxGeometry width="50" height="50" relative="1" as="geometry">
            <mxPoint x="680" y="460" as="sourcePoint" />
            <mxPoint x="725" y="460" as="targetPoint" />
          </mxGeometry>
        </mxCell>
        <mxCell id="Gzbia7pIsG1ZChBNoY8I-28" value="" style="endArrow=none;html=1;rounded=0;" parent="1" edge="1">
          <mxGeometry width="50" height="50" relative="1" as="geometry">
            <mxPoint x="680" y="480" as="sourcePoint" />
            <mxPoint x="734" y="480" as="targetPoint" />
          </mxGeometry>
        </mxCell>
        <mxCell id="Gzbia7pIsG1ZChBNoY8I-29" value="" style="endArrow=none;html=1;rounded=0;" parent="1" edge="1">
          <mxGeometry width="50" height="50" relative="1" as="geometry">
            <mxPoint x="680" y="500" as="sourcePoint" />
            <mxPoint x="748" y="500" as="targetPoint" />
          </mxGeometry>
        </mxCell>
        <mxCell id="Gzbia7pIsG1ZChBNoY8I-30" value="" style="ellipse;whiteSpace=wrap;html=1;aspect=fixed;fillColor=#000000;" parent="1" vertex="1">
          <mxGeometry x="768" y="518" width="5" height="5" as="geometry" />
        </mxCell>
        <mxCell id="Gzbia7pIsG1ZChBNoY8I-31" value="" style="ellipse;whiteSpace=wrap;html=1;aspect=fixed;fillColor=#000000;" parent="1" vertex="1">
          <mxGeometry x="708" y="357.5" width="5" height="5" as="geometry" />
        </mxCell>
        <mxCell id="Gzbia7pIsG1ZChBNoY8I-32" value="&lt;span&gt;T&lt;span style=&quot;color: rgb(31, 31, 31); font-family: &amp;quot;Google Sans&amp;quot;, Arial, sans-serif; font-size: 16px; text-align: start; background-color: rgb(255, 255, 255);&quot;&gt;&lt;sub style=&quot;&quot;&gt;∞&lt;/sub&gt;&lt;/span&gt;&lt;/span&gt;" style="text;html=1;align=center;verticalAlign=middle;whiteSpace=wrap;rounded=0;" parent="1" vertex="1">
          <mxGeometry x="680.5" y="327.5" width="60" height="30" as="geometry" />
        </mxCell>
        <mxCell id="Gzbia7pIsG1ZChBNoY8I-33" value="&lt;div style=&quot;text-align: start;&quot;&gt;&lt;span style=&quot;background-color: transparent; color: light-dark(rgb(0, 0, 0), rgb(255, 255, 255));&quot;&gt;T&lt;/span&gt;&lt;font face=&quot;Google Sans, Arial, sans-serif&quot; color=&quot;#1f1f1f&quot;&gt;&lt;span style=&quot;font-size: 13.3333px; background-color: rgb(255, 255, 255);&quot;&gt;&lt;sub&gt;s&lt;/sub&gt;&lt;/span&gt;&lt;/font&gt;&lt;/div&gt;" style="text;html=1;align=center;verticalAlign=middle;whiteSpace=wrap;rounded=0;" parent="1" vertex="1">
          <mxGeometry x="740.5" y="488" width="60" height="30" as="geometry" />
        </mxCell>
        <mxCell id="Gzbia7pIsG1ZChBNoY8I-34" value="Temperature variation of air" style="text;html=1;align=center;verticalAlign=middle;whiteSpace=wrap;rounded=0;" parent="1" vertex="1">
          <mxGeometry x="730" y="410" width="60" height="30" as="geometry" />
        </mxCell>
        <mxCell id="Gzbia7pIsG1ZChBNoY8I-35" value="" style="shape=singleArrow;whiteSpace=wrap;html=1;" parent="1" vertex="1">
          <mxGeometry x="580" y="430" width="60" height="20" as="geometry" />
        </mxCell>
        <mxCell id="Gzbia7pIsG1ZChBNoY8I-36" value="Air&amp;nbsp;&lt;span style=&quot;background-color: transparent; color: light-dark(rgb(0, 0, 0), rgb(255, 255, 255));&quot;&gt;flow&lt;/span&gt;" style="text;html=1;align=center;verticalAlign=middle;whiteSpace=wrap;rounded=0;" parent="1" vertex="1">
          <mxGeometry x="566.5" y="400" width="87" height="30" as="geometry" />
        </mxCell>
        <mxCell id="Gzbia7pIsG1ZChBNoY8I-37" value="" style="endArrow=classic;html=1;rounded=1;curved=0;" parent="1" edge="1">
          <mxGeometry width="50" height="50" relative="1" as="geometry">
            <mxPoint x="540" y="498" as="sourcePoint" />
            <mxPoint x="530" y="518" as="targetPoint" />
            <Array as="points">
              <mxPoint x="540" y="510" />
            </Array>
          </mxGeometry>
        </mxCell>
        <mxCell id="Gzbia7pIsG1ZChBNoY8I-38" value="A&lt;sub&gt;s&lt;/sub&gt;" style="text;html=1;align=center;verticalAlign=middle;whiteSpace=wrap;rounded=0;" parent="1" vertex="1">
          <mxGeometry x="513" y="477" width="60" height="30" as="geometry" />
        </mxCell>
        <mxCell id="Gzbia7pIsG1ZChBNoY8I-45" value="" style="endArrow=classic;html=1;rounded=0;curved=1;" parent="1" edge="1">
          <mxGeometry width="50" height="50" relative="1" as="geometry">
            <mxPoint x="600" y="530" as="sourcePoint" />
            <mxPoint x="610" y="500" as="targetPoint" />
            <Array as="points">
              <mxPoint x="600" y="510" />
            </Array>
          </mxGeometry>
        </mxCell>
        <mxCell id="Gzbia7pIsG1ZChBNoY8I-46" value="Q" style="text;html=1;align=center;verticalAlign=middle;whiteSpace=wrap;rounded=0;" parent="1" vertex="1">
          <mxGeometry x="587" y="481" width="60" height="30" as="geometry" />
        </mxCell>
        <mxCell id="Gzbia7pIsG1ZChBNoY8I-47" value="" style="ellipse;whiteSpace=wrap;html=1;strokeWidth=0;fillColor=#000000;" parent="1" vertex="1">
          <mxGeometry x="616.5" y="488" width="1" height="1" as="geometry" />
        </mxCell>
      </root>
    </mxGraphModel>
  </diagram>
</mxfile>
